<mxfile host="app.diagrams.net" agent="Mozilla/5.0 (Windows NT 10.0; Win64; x64) AppleWebKit/537.36 (KHTML, like Gecko) Chrome/134.0.0.0 Safari/537.36" version="26.2.9">
  <diagram id="C5RBs43oDa-KdzZeNtuy" name="Page-1">
    <mxGraphModel dx="1929" dy="2211" grid="1" gridSize="10" guides="1" tooltips="1" connect="1" arrows="1" fold="1" page="1" pageScale="1" pageWidth="827" pageHeight="1169" math="0" shadow="0">
      <root>
        <mxCell id="WIyWlLk6GJQsqaUBKTNV-0" />
        <mxCell id="WIyWlLk6GJQsqaUBKTNV-1" parent="WIyWlLk6GJQsqaUBKTNV-0" />
        <mxCell id="LS3qMMqg_-Oj2FB-LzM4-1" style="edgeStyle=orthogonalEdgeStyle;rounded=0;orthogonalLoop=1;jettySize=auto;html=1;exitX=0.5;exitY=1;exitDx=0;exitDy=0;" edge="1" parent="WIyWlLk6GJQsqaUBKTNV-1" source="LS3qMMqg_-Oj2FB-LzM4-2" target="LS3qMMqg_-Oj2FB-LzM4-4">
          <mxGeometry relative="1" as="geometry" />
        </mxCell>
        <mxCell id="LS3qMMqg_-Oj2FB-LzM4-2" value="Ввод матрицы A и вектора b" style="shape=parallelogram;perimeter=parallelogramPerimeter;whiteSpace=wrap;html=1;fixedSize=1;" vertex="1" parent="WIyWlLk6GJQsqaUBKTNV-1">
          <mxGeometry x="710" y="60" width="140" height="60" as="geometry" />
        </mxCell>
        <mxCell id="LS3qMMqg_-Oj2FB-LzM4-3" value="" style="edgeStyle=orthogonalEdgeStyle;rounded=0;orthogonalLoop=1;jettySize=auto;html=1;" edge="1" parent="WIyWlLk6GJQsqaUBKTNV-1" source="LS3qMMqg_-Oj2FB-LzM4-4" target="LS3qMMqg_-Oj2FB-LzM4-6">
          <mxGeometry relative="1" as="geometry" />
        </mxCell>
        <mxCell id="LS3qMMqg_-Oj2FB-LzM4-4" value="n = len(A)" style="rounded=0;whiteSpace=wrap;html=1;" vertex="1" parent="WIyWlLk6GJQsqaUBKTNV-1">
          <mxGeometry x="720" y="140" width="120" height="30" as="geometry" />
        </mxCell>
        <mxCell id="LS3qMMqg_-Oj2FB-LzM4-5" style="edgeStyle=orthogonalEdgeStyle;rounded=0;orthogonalLoop=1;jettySize=auto;html=1;exitX=0.5;exitY=1;exitDx=0;exitDy=0;entryX=0.5;entryY=0;entryDx=0;entryDy=0;" edge="1" parent="WIyWlLk6GJQsqaUBKTNV-1" source="LS3qMMqg_-Oj2FB-LzM4-6" target="LS3qMMqg_-Oj2FB-LzM4-8">
          <mxGeometry relative="1" as="geometry" />
        </mxCell>
        <mxCell id="LS3qMMqg_-Oj2FB-LzM4-6" value="A_orig = copy.deepcopy(A)&lt;div&gt;b_orig = b.copy()&lt;/div&gt;" style="whiteSpace=wrap;html=1;rounded=0;" vertex="1" parent="WIyWlLk6GJQsqaUBKTNV-1">
          <mxGeometry x="700" y="190" width="160" height="50" as="geometry" />
        </mxCell>
        <mxCell id="LS3qMMqg_-Oj2FB-LzM4-7" style="edgeStyle=orthogonalEdgeStyle;rounded=0;orthogonalLoop=1;jettySize=auto;html=1;exitX=0.5;exitY=1;exitDx=0;exitDy=0;entryX=0.5;entryY=0;entryDx=0;entryDy=0;" edge="1" parent="WIyWlLk6GJQsqaUBKTNV-1" source="LS3qMMqg_-Oj2FB-LzM4-8" target="LS3qMMqg_-Oj2FB-LzM4-11">
          <mxGeometry relative="1" as="geometry" />
        </mxCell>
        <mxCell id="LS3qMMqg_-Oj2FB-LzM4-8" value="swap_count = 0" style="rounded=0;whiteSpace=wrap;html=1;" vertex="1" parent="WIyWlLk6GJQsqaUBKTNV-1">
          <mxGeometry x="720" y="320" width="120" height="30" as="geometry" />
        </mxCell>
        <mxCell id="LS3qMMqg_-Oj2FB-LzM4-9" style="edgeStyle=orthogonalEdgeStyle;rounded=0;orthogonalLoop=1;jettySize=auto;html=1;exitX=0.5;exitY=1;exitDx=0;exitDy=0;entryX=0.5;entryY=0;entryDx=0;entryDy=0;" edge="1" parent="WIyWlLk6GJQsqaUBKTNV-1" source="LS3qMMqg_-Oj2FB-LzM4-11" target="LS3qMMqg_-Oj2FB-LzM4-13">
          <mxGeometry relative="1" as="geometry" />
        </mxCell>
        <mxCell id="LS3qMMqg_-Oj2FB-LzM4-10" style="edgeStyle=orthogonalEdgeStyle;rounded=0;orthogonalLoop=1;jettySize=auto;html=1;exitX=0;exitY=0.5;exitDx=0;exitDy=0;entryX=0;entryY=0.5;entryDx=0;entryDy=0;" edge="1" parent="WIyWlLk6GJQsqaUBKTNV-1" source="LS3qMMqg_-Oj2FB-LzM4-11" target="LS3qMMqg_-Oj2FB-LzM4-47">
          <mxGeometry relative="1" as="geometry">
            <Array as="points">
              <mxPoint x="470" y="390" />
              <mxPoint x="470" y="1495" />
            </Array>
          </mxGeometry>
        </mxCell>
        <mxCell id="LS3qMMqg_-Oj2FB-LzM4-11" value="&amp;nbsp;i = 0, n-1" style="shape=hexagon;perimeter=hexagonPerimeter2;whiteSpace=wrap;html=1;fixedSize=1;" vertex="1" parent="WIyWlLk6GJQsqaUBKTNV-1">
          <mxGeometry x="690" y="370" width="180" height="40" as="geometry" />
        </mxCell>
        <mxCell id="LS3qMMqg_-Oj2FB-LzM4-12" style="edgeStyle=orthogonalEdgeStyle;rounded=0;orthogonalLoop=1;jettySize=auto;html=1;exitX=0.5;exitY=1;exitDx=0;exitDy=0;entryX=0.5;entryY=0;entryDx=0;entryDy=0;" edge="1" parent="WIyWlLk6GJQsqaUBKTNV-1" source="LS3qMMqg_-Oj2FB-LzM4-13" target="LS3qMMqg_-Oj2FB-LzM4-16">
          <mxGeometry relative="1" as="geometry" />
        </mxCell>
        <mxCell id="LS3qMMqg_-Oj2FB-LzM4-13" value="max_row = i" style="rounded=0;whiteSpace=wrap;html=1;" vertex="1" parent="WIyWlLk6GJQsqaUBKTNV-1">
          <mxGeometry x="720" y="430" width="120" height="30" as="geometry" />
        </mxCell>
        <mxCell id="LS3qMMqg_-Oj2FB-LzM4-14" value="да" style="edgeStyle=orthogonalEdgeStyle;rounded=0;orthogonalLoop=1;jettySize=auto;html=1;exitX=0.5;exitY=1;exitDx=0;exitDy=0;entryX=0.5;entryY=0;entryDx=0;entryDy=0;" edge="1" parent="WIyWlLk6GJQsqaUBKTNV-1" source="LS3qMMqg_-Oj2FB-LzM4-16" target="LS3qMMqg_-Oj2FB-LzM4-19">
          <mxGeometry relative="1" as="geometry" />
        </mxCell>
        <mxCell id="LS3qMMqg_-Oj2FB-LzM4-15" style="edgeStyle=orthogonalEdgeStyle;rounded=0;orthogonalLoop=1;jettySize=auto;html=1;exitX=0;exitY=0.5;exitDx=0;exitDy=0;entryX=0.5;entryY=0;entryDx=0;entryDy=0;" edge="1" parent="WIyWlLk6GJQsqaUBKTNV-1" source="LS3qMMqg_-Oj2FB-LzM4-16" target="LS3qMMqg_-Oj2FB-LzM4-25">
          <mxGeometry relative="1" as="geometry">
            <Array as="points">
              <mxPoint x="520" y="505" />
              <mxPoint x="520" y="780" />
              <mxPoint x="780" y="780" />
            </Array>
          </mxGeometry>
        </mxCell>
        <mxCell id="LS3qMMqg_-Oj2FB-LzM4-16" value="Цикл по строкам ниже:&lt;br&gt;k = i+1, n-1" style="shape=hexagon;perimeter=hexagonPerimeter2;whiteSpace=wrap;html=1;fixedSize=1;" vertex="1" parent="WIyWlLk6GJQsqaUBKTNV-1">
          <mxGeometry x="690" y="484.5" width="180" height="40" as="geometry" />
        </mxCell>
        <mxCell id="LS3qMMqg_-Oj2FB-LzM4-17" value="нет" style="edgeStyle=orthogonalEdgeStyle;rounded=0;orthogonalLoop=1;jettySize=auto;html=1;exitX=1;exitY=0.5;exitDx=0;exitDy=0;entryX=1;entryY=0.5;entryDx=0;entryDy=0;" edge="1" parent="WIyWlLk6GJQsqaUBKTNV-1" source="LS3qMMqg_-Oj2FB-LzM4-19" target="LS3qMMqg_-Oj2FB-LzM4-16">
          <mxGeometry relative="1" as="geometry">
            <mxPoint x="940" y="630" as="targetPoint" />
          </mxGeometry>
        </mxCell>
        <mxCell id="LS3qMMqg_-Oj2FB-LzM4-18" value="да" style="edgeStyle=orthogonalEdgeStyle;rounded=0;orthogonalLoop=1;jettySize=auto;html=1;exitX=0;exitY=0.5;exitDx=0;exitDy=0;entryX=0.5;entryY=0;entryDx=0;entryDy=0;" edge="1" parent="WIyWlLk6GJQsqaUBKTNV-1" source="LS3qMMqg_-Oj2FB-LzM4-19" target="LS3qMMqg_-Oj2FB-LzM4-21">
          <mxGeometry relative="1" as="geometry" />
        </mxCell>
        <mxCell id="LS3qMMqg_-Oj2FB-LzM4-19" value="abs(A&lt;sub&gt;ki&lt;/sub&gt;) &amp;gt; abs(A&lt;sub&gt;max_row i&lt;/sub&gt;)" style="rhombus;whiteSpace=wrap;html=1;" vertex="1" parent="WIyWlLk6GJQsqaUBKTNV-1">
          <mxGeometry x="690" y="550" width="180" height="80" as="geometry" />
        </mxCell>
        <mxCell id="LS3qMMqg_-Oj2FB-LzM4-20" style="edgeStyle=orthogonalEdgeStyle;rounded=0;orthogonalLoop=1;jettySize=auto;html=1;exitX=0.5;exitY=1;exitDx=0;exitDy=0;entryX=1;entryY=0.5;entryDx=0;entryDy=0;" edge="1" parent="WIyWlLk6GJQsqaUBKTNV-1" source="LS3qMMqg_-Oj2FB-LzM4-21" target="LS3qMMqg_-Oj2FB-LzM4-16">
          <mxGeometry relative="1" as="geometry">
            <Array as="points">
              <mxPoint x="620" y="700" />
              <mxPoint x="920" y="700" />
              <mxPoint x="920" y="505" />
            </Array>
          </mxGeometry>
        </mxCell>
        <mxCell id="LS3qMMqg_-Oj2FB-LzM4-21" value="max_row = k" style="rounded=0;whiteSpace=wrap;html=1;" vertex="1" parent="WIyWlLk6GJQsqaUBKTNV-1">
          <mxGeometry x="560" y="630" width="120" height="40" as="geometry" />
        </mxCell>
        <mxCell id="LS3qMMqg_-Oj2FB-LzM4-22" style="edgeStyle=orthogonalEdgeStyle;rounded=0;orthogonalLoop=1;jettySize=auto;html=1;exitX=0;exitY=0.5;exitDx=0;exitDy=0;" edge="1" parent="WIyWlLk6GJQsqaUBKTNV-1" source="LS3qMMqg_-Oj2FB-LzM4-25">
          <mxGeometry relative="1" as="geometry">
            <mxPoint x="500" y="910" as="targetPoint" />
          </mxGeometry>
        </mxCell>
        <mxCell id="LS3qMMqg_-Oj2FB-LzM4-23" value="да" style="edgeLabel;html=1;align=center;verticalAlign=middle;resizable=0;points=[];" vertex="1" connectable="0" parent="LS3qMMqg_-Oj2FB-LzM4-22">
          <mxGeometry x="-0.3012" y="2" relative="1" as="geometry">
            <mxPoint as="offset" />
          </mxGeometry>
        </mxCell>
        <mxCell id="LS3qMMqg_-Oj2FB-LzM4-24" value="нет" style="edgeStyle=orthogonalEdgeStyle;rounded=0;orthogonalLoop=1;jettySize=auto;html=1;exitX=1;exitY=0.5;exitDx=0;exitDy=0;entryX=0.5;entryY=0;entryDx=0;entryDy=0;" edge="1" parent="WIyWlLk6GJQsqaUBKTNV-1" source="LS3qMMqg_-Oj2FB-LzM4-25" target="LS3qMMqg_-Oj2FB-LzM4-29">
          <mxGeometry relative="1" as="geometry" />
        </mxCell>
        <mxCell id="LS3qMMqg_-Oj2FB-LzM4-25" value="A&lt;sub&gt;max_row i == 0&lt;/sub&gt;" style="rhombus;whiteSpace=wrap;html=1;" vertex="1" parent="WIyWlLk6GJQsqaUBKTNV-1">
          <mxGeometry x="725" y="800" width="110" height="60" as="geometry" />
        </mxCell>
        <mxCell id="LS3qMMqg_-Oj2FB-LzM4-26" style="edgeStyle=orthogonalEdgeStyle;rounded=0;orthogonalLoop=1;jettySize=auto;html=1;entryX=0;entryY=0.5;entryDx=0;entryDy=0;" edge="1" parent="WIyWlLk6GJQsqaUBKTNV-1" target="LS3qMMqg_-Oj2FB-LzM4-72">
          <mxGeometry relative="1" as="geometry">
            <mxPoint x="500" y="910" as="sourcePoint" />
            <Array as="points">
              <mxPoint x="500" y="910" />
              <mxPoint x="500" y="2550" />
            </Array>
          </mxGeometry>
        </mxCell>
        <mxCell id="LS3qMMqg_-Oj2FB-LzM4-27" style="edgeStyle=orthogonalEdgeStyle;rounded=0;orthogonalLoop=1;jettySize=auto;html=1;exitX=0;exitY=0.5;exitDx=0;exitDy=0;entryX=0.5;entryY=0;entryDx=0;entryDy=0;" edge="1" parent="WIyWlLk6GJQsqaUBKTNV-1" source="LS3qMMqg_-Oj2FB-LzM4-29" target="LS3qMMqg_-Oj2FB-LzM4-31">
          <mxGeometry relative="1" as="geometry" />
        </mxCell>
        <mxCell id="LS3qMMqg_-Oj2FB-LzM4-28" style="edgeStyle=orthogonalEdgeStyle;rounded=0;orthogonalLoop=1;jettySize=auto;html=1;exitX=0.5;exitY=1;exitDx=0;exitDy=0;" edge="1" parent="WIyWlLk6GJQsqaUBKTNV-1" source="LS3qMMqg_-Oj2FB-LzM4-29">
          <mxGeometry relative="1" as="geometry">
            <mxPoint x="780" y="1090" as="targetPoint" />
            <Array as="points">
              <mxPoint x="930" y="1050" />
              <mxPoint x="781" y="1050" />
              <mxPoint x="781" y="1090" />
            </Array>
          </mxGeometry>
        </mxCell>
        <mxCell id="LS3qMMqg_-Oj2FB-LzM4-29" value="i&lt;sub&gt;max_row&lt;/sub&gt; != i" style="rhombus;whiteSpace=wrap;html=1;" vertex="1" parent="WIyWlLk6GJQsqaUBKTNV-1">
          <mxGeometry x="880" y="850" width="100" height="60" as="geometry" />
        </mxCell>
        <mxCell id="LS3qMMqg_-Oj2FB-LzM4-30" style="edgeStyle=orthogonalEdgeStyle;rounded=0;orthogonalLoop=1;jettySize=auto;html=1;exitX=0.5;exitY=1;exitDx=0;exitDy=0;entryX=0.5;entryY=0;entryDx=0;entryDy=0;" edge="1" parent="WIyWlLk6GJQsqaUBKTNV-1" source="LS3qMMqg_-Oj2FB-LzM4-31" target="LS3qMMqg_-Oj2FB-LzM4-33">
          <mxGeometry relative="1" as="geometry" />
        </mxCell>
        <mxCell id="LS3qMMqg_-Oj2FB-LzM4-31" value="A&lt;sub&gt;i&lt;/sub&gt;, A&lt;sub&gt;max_row&lt;/sub&gt; = A&lt;sub&gt;max_row&lt;/sub&gt;, A&lt;sub&gt;i&lt;/sub&gt;&lt;br&gt;b&lt;span style=&quot;font-size: 10px;&quot;&gt;&lt;sub&gt;i&lt;/sub&gt;&lt;/span&gt;, b&lt;sub&gt;max_row&lt;/sub&gt; = b&lt;sub&gt;max_row&lt;/sub&gt;, b&lt;sub&gt;i&lt;/sub&gt;" style="rounded=0;whiteSpace=wrap;html=1;" vertex="1" parent="WIyWlLk6GJQsqaUBKTNV-1">
          <mxGeometry x="750" y="910" width="150" height="40" as="geometry" />
        </mxCell>
        <mxCell id="LS3qMMqg_-Oj2FB-LzM4-32" style="edgeStyle=orthogonalEdgeStyle;rounded=0;orthogonalLoop=1;jettySize=auto;html=1;exitX=0.5;exitY=1;exitDx=0;exitDy=0;entryX=0.5;entryY=0;entryDx=0;entryDy=0;" edge="1" parent="WIyWlLk6GJQsqaUBKTNV-1" source="LS3qMMqg_-Oj2FB-LzM4-33" target="LS3qMMqg_-Oj2FB-LzM4-36">
          <mxGeometry relative="1" as="geometry" />
        </mxCell>
        <mxCell id="LS3qMMqg_-Oj2FB-LzM4-33" value="swap_count += 1" style="rounded=0;whiteSpace=wrap;html=1;" vertex="1" parent="WIyWlLk6GJQsqaUBKTNV-1">
          <mxGeometry x="765" y="970" width="120" height="40" as="geometry" />
        </mxCell>
        <mxCell id="LS3qMMqg_-Oj2FB-LzM4-34" style="edgeStyle=orthogonalEdgeStyle;rounded=0;orthogonalLoop=1;jettySize=auto;html=1;exitX=0.5;exitY=1;exitDx=0;exitDy=0;" edge="1" parent="WIyWlLk6GJQsqaUBKTNV-1" source="LS3qMMqg_-Oj2FB-LzM4-36" target="LS3qMMqg_-Oj2FB-LzM4-38">
          <mxGeometry relative="1" as="geometry" />
        </mxCell>
        <mxCell id="LS3qMMqg_-Oj2FB-LzM4-35" style="edgeStyle=orthogonalEdgeStyle;rounded=0;orthogonalLoop=1;jettySize=auto;html=1;exitX=0;exitY=0.5;exitDx=0;exitDy=0;entryX=1;entryY=0.5;entryDx=0;entryDy=0;" edge="1" parent="WIyWlLk6GJQsqaUBKTNV-1" source="LS3qMMqg_-Oj2FB-LzM4-36" target="LS3qMMqg_-Oj2FB-LzM4-11">
          <mxGeometry relative="1" as="geometry">
            <Array as="points">
              <mxPoint x="620" y="1110" />
              <mxPoint x="620" y="1430" />
              <mxPoint x="1130" y="1430" />
              <mxPoint x="1130" y="390" />
            </Array>
          </mxGeometry>
        </mxCell>
        <mxCell id="LS3qMMqg_-Oj2FB-LzM4-36" value="Цикл по строкам ниже:&lt;br&gt;j = i+1, n-1" style="shape=hexagon;perimeter=hexagonPerimeter2;whiteSpace=wrap;html=1;fixedSize=1;" vertex="1" parent="WIyWlLk6GJQsqaUBKTNV-1">
          <mxGeometry x="690" y="1090" width="180" height="40" as="geometry" />
        </mxCell>
        <mxCell id="LS3qMMqg_-Oj2FB-LzM4-37" style="edgeStyle=orthogonalEdgeStyle;rounded=0;orthogonalLoop=1;jettySize=auto;html=1;exitX=0.5;exitY=1;exitDx=0;exitDy=0;" edge="1" parent="WIyWlLk6GJQsqaUBKTNV-1" source="LS3qMMqg_-Oj2FB-LzM4-38" target="LS3qMMqg_-Oj2FB-LzM4-41">
          <mxGeometry relative="1" as="geometry" />
        </mxCell>
        <mxCell id="LS3qMMqg_-Oj2FB-LzM4-38" value="factor = A&lt;sub&gt;ji&lt;/sub&gt; / A&lt;sub&gt;ii&lt;/sub&gt;" style="rounded=0;whiteSpace=wrap;html=1;" vertex="1" parent="WIyWlLk6GJQsqaUBKTNV-1">
          <mxGeometry x="720" y="1160" width="120" height="30" as="geometry" />
        </mxCell>
        <mxCell id="LS3qMMqg_-Oj2FB-LzM4-39" style="edgeStyle=orthogonalEdgeStyle;rounded=0;orthogonalLoop=1;jettySize=auto;html=1;exitX=0.5;exitY=1;exitDx=0;exitDy=0;entryX=0.5;entryY=0;entryDx=0;entryDy=0;" edge="1" parent="WIyWlLk6GJQsqaUBKTNV-1" source="LS3qMMqg_-Oj2FB-LzM4-41" target="LS3qMMqg_-Oj2FB-LzM4-43">
          <mxGeometry relative="1" as="geometry" />
        </mxCell>
        <mxCell id="LS3qMMqg_-Oj2FB-LzM4-40" style="edgeStyle=orthogonalEdgeStyle;rounded=0;orthogonalLoop=1;jettySize=auto;html=1;exitX=0;exitY=0.5;exitDx=0;exitDy=0;entryX=0;entryY=0.5;entryDx=0;entryDy=0;" edge="1" parent="WIyWlLk6GJQsqaUBKTNV-1" source="LS3qMMqg_-Oj2FB-LzM4-41" target="LS3qMMqg_-Oj2FB-LzM4-45">
          <mxGeometry relative="1" as="geometry" />
        </mxCell>
        <mxCell id="LS3qMMqg_-Oj2FB-LzM4-41" value="Цикл по строкам:&lt;br&gt;k = i, n-1" style="shape=hexagon;perimeter=hexagonPerimeter2;whiteSpace=wrap;html=1;fixedSize=1;" vertex="1" parent="WIyWlLk6GJQsqaUBKTNV-1">
          <mxGeometry x="690" y="1210" width="180" height="40" as="geometry" />
        </mxCell>
        <mxCell id="LS3qMMqg_-Oj2FB-LzM4-42" style="edgeStyle=orthogonalEdgeStyle;rounded=0;orthogonalLoop=1;jettySize=auto;html=1;exitX=1;exitY=0.5;exitDx=0;exitDy=0;entryX=1;entryY=0.5;entryDx=0;entryDy=0;" edge="1" parent="WIyWlLk6GJQsqaUBKTNV-1" source="LS3qMMqg_-Oj2FB-LzM4-43" target="LS3qMMqg_-Oj2FB-LzM4-41">
          <mxGeometry relative="1" as="geometry">
            <Array as="points">
              <mxPoint x="900" y="1295" />
              <mxPoint x="900" y="1230" />
            </Array>
          </mxGeometry>
        </mxCell>
        <mxCell id="LS3qMMqg_-Oj2FB-LzM4-43" value="A&lt;sub&gt;ji&lt;/sub&gt;&amp;nbsp;-= factor * A&lt;sub&gt;ik&lt;/sub&gt;" style="rounded=0;whiteSpace=wrap;html=1;" vertex="1" parent="WIyWlLk6GJQsqaUBKTNV-1">
          <mxGeometry x="720" y="1280" width="120" height="30" as="geometry" />
        </mxCell>
        <mxCell id="LS3qMMqg_-Oj2FB-LzM4-44" style="edgeStyle=orthogonalEdgeStyle;rounded=0;orthogonalLoop=1;jettySize=auto;html=1;exitX=0.5;exitY=1;exitDx=0;exitDy=0;entryX=1;entryY=0.5;entryDx=0;entryDy=0;" edge="1" parent="WIyWlLk6GJQsqaUBKTNV-1" source="LS3qMMqg_-Oj2FB-LzM4-45" target="LS3qMMqg_-Oj2FB-LzM4-36">
          <mxGeometry relative="1" as="geometry">
            <Array as="points">
              <mxPoint x="780" y="1400" />
              <mxPoint x="970" y="1400" />
              <mxPoint x="970" y="1110" />
            </Array>
          </mxGeometry>
        </mxCell>
        <mxCell id="LS3qMMqg_-Oj2FB-LzM4-45" value="b&lt;sub&gt;j&lt;/sub&gt;&amp;nbsp;-= factor * b&lt;sub&gt;i&lt;/sub&gt;" style="rounded=0;whiteSpace=wrap;html=1;" vertex="1" parent="WIyWlLk6GJQsqaUBKTNV-1">
          <mxGeometry x="720" y="1350" width="120" height="30" as="geometry" />
        </mxCell>
        <mxCell id="LS3qMMqg_-Oj2FB-LzM4-46" style="edgeStyle=orthogonalEdgeStyle;rounded=0;orthogonalLoop=1;jettySize=auto;html=1;exitX=0.5;exitY=1;exitDx=0;exitDy=0;entryX=0.5;entryY=0;entryDx=0;entryDy=0;" edge="1" parent="WIyWlLk6GJQsqaUBKTNV-1" source="LS3qMMqg_-Oj2FB-LzM4-47" target="LS3qMMqg_-Oj2FB-LzM4-50">
          <mxGeometry relative="1" as="geometry" />
        </mxCell>
        <mxCell id="LS3qMMqg_-Oj2FB-LzM4-47" value="determinant = 1" style="rounded=0;whiteSpace=wrap;html=1;" vertex="1" parent="WIyWlLk6GJQsqaUBKTNV-1">
          <mxGeometry x="720" y="1480" width="120" height="30" as="geometry" />
        </mxCell>
        <mxCell id="LS3qMMqg_-Oj2FB-LzM4-48" style="edgeStyle=orthogonalEdgeStyle;rounded=0;orthogonalLoop=1;jettySize=auto;html=1;exitX=0.5;exitY=1;exitDx=0;exitDy=0;entryX=0.5;entryY=0;entryDx=0;entryDy=0;" edge="1" parent="WIyWlLk6GJQsqaUBKTNV-1" source="LS3qMMqg_-Oj2FB-LzM4-50" target="LS3qMMqg_-Oj2FB-LzM4-52">
          <mxGeometry relative="1" as="geometry" />
        </mxCell>
        <mxCell id="LS3qMMqg_-Oj2FB-LzM4-49" style="edgeStyle=orthogonalEdgeStyle;rounded=0;orthogonalLoop=1;jettySize=auto;html=1;exitX=0;exitY=0.5;exitDx=0;exitDy=0;entryX=0.5;entryY=0;entryDx=0;entryDy=0;" edge="1" parent="WIyWlLk6GJQsqaUBKTNV-1" source="LS3qMMqg_-Oj2FB-LzM4-50" target="LS3qMMqg_-Oj2FB-LzM4-55">
          <mxGeometry relative="1" as="geometry">
            <Array as="points">
              <mxPoint x="670" y="1570" />
              <mxPoint x="670" y="1690" />
              <mxPoint x="780" y="1690" />
            </Array>
          </mxGeometry>
        </mxCell>
        <mxCell id="LS3qMMqg_-Oj2FB-LzM4-50" value="Цикл по диагональным элементам:&lt;br&gt;i = 0, n-1" style="shape=hexagon;perimeter=hexagonPerimeter2;whiteSpace=wrap;html=1;fixedSize=1;" vertex="1" parent="WIyWlLk6GJQsqaUBKTNV-1">
          <mxGeometry x="690" y="1550" width="180" height="40" as="geometry" />
        </mxCell>
        <mxCell id="LS3qMMqg_-Oj2FB-LzM4-51" style="edgeStyle=orthogonalEdgeStyle;rounded=0;orthogonalLoop=1;jettySize=auto;html=1;exitX=0.5;exitY=1;exitDx=0;exitDy=0;entryX=1;entryY=0.5;entryDx=0;entryDy=0;" edge="1" parent="WIyWlLk6GJQsqaUBKTNV-1" source="LS3qMMqg_-Oj2FB-LzM4-52" target="LS3qMMqg_-Oj2FB-LzM4-50">
          <mxGeometry relative="1" as="geometry">
            <Array as="points">
              <mxPoint x="780" y="1670" />
              <mxPoint x="890" y="1670" />
              <mxPoint x="890" y="1570" />
            </Array>
          </mxGeometry>
        </mxCell>
        <mxCell id="LS3qMMqg_-Oj2FB-LzM4-52" value="determinant *= A&lt;sub&gt;ii&lt;/sub&gt;" style="rounded=0;whiteSpace=wrap;html=1;" vertex="1" parent="WIyWlLk6GJQsqaUBKTNV-1">
          <mxGeometry x="720" y="1610" width="120" height="40" as="geometry" />
        </mxCell>
        <mxCell id="LS3qMMqg_-Oj2FB-LzM4-53" value="да" style="edgeStyle=orthogonalEdgeStyle;rounded=0;orthogonalLoop=1;jettySize=auto;html=1;exitX=0;exitY=0.5;exitDx=0;exitDy=0;entryX=0.5;entryY=0;entryDx=0;entryDy=0;" edge="1" parent="WIyWlLk6GJQsqaUBKTNV-1" source="LS3qMMqg_-Oj2FB-LzM4-55" target="LS3qMMqg_-Oj2FB-LzM4-57">
          <mxGeometry relative="1" as="geometry" />
        </mxCell>
        <mxCell id="LS3qMMqg_-Oj2FB-LzM4-54" value="нет" style="edgeStyle=orthogonalEdgeStyle;rounded=0;orthogonalLoop=1;jettySize=auto;html=1;exitX=1;exitY=0.5;exitDx=0;exitDy=0;entryX=1;entryY=0.5;entryDx=0;entryDy=0;" edge="1" parent="WIyWlLk6GJQsqaUBKTNV-1" source="LS3qMMqg_-Oj2FB-LzM4-55" target="LS3qMMqg_-Oj2FB-LzM4-59">
          <mxGeometry relative="1" as="geometry" />
        </mxCell>
        <mxCell id="LS3qMMqg_-Oj2FB-LzM4-55" value="swap_count % 2 != 0" style="rhombus;whiteSpace=wrap;html=1;" vertex="1" parent="WIyWlLk6GJQsqaUBKTNV-1">
          <mxGeometry x="700" y="1710" width="160" height="80" as="geometry" />
        </mxCell>
        <mxCell id="LS3qMMqg_-Oj2FB-LzM4-56" style="edgeStyle=orthogonalEdgeStyle;rounded=0;orthogonalLoop=1;jettySize=auto;html=1;exitX=0.5;exitY=1;exitDx=0;exitDy=0;entryX=0;entryY=0.5;entryDx=0;entryDy=0;" edge="1" parent="WIyWlLk6GJQsqaUBKTNV-1" source="LS3qMMqg_-Oj2FB-LzM4-57" target="LS3qMMqg_-Oj2FB-LzM4-59">
          <mxGeometry relative="1" as="geometry" />
        </mxCell>
        <mxCell id="LS3qMMqg_-Oj2FB-LzM4-57" value="determinant = -determinant" style="rounded=0;whiteSpace=wrap;html=1;" vertex="1" parent="WIyWlLk6GJQsqaUBKTNV-1">
          <mxGeometry x="545" y="1770" width="150" height="40" as="geometry" />
        </mxCell>
        <mxCell id="LS3qMMqg_-Oj2FB-LzM4-58" style="edgeStyle=orthogonalEdgeStyle;rounded=0;orthogonalLoop=1;jettySize=auto;html=1;exitX=0.5;exitY=1;exitDx=0;exitDy=0;entryX=0.5;entryY=0;entryDx=0;entryDy=0;" edge="1" parent="WIyWlLk6GJQsqaUBKTNV-1" source="LS3qMMqg_-Oj2FB-LzM4-59" target="LS3qMMqg_-Oj2FB-LzM4-62">
          <mxGeometry relative="1" as="geometry" />
        </mxCell>
        <mxCell id="LS3qMMqg_-Oj2FB-LzM4-59" value="x = [0] * n - инициализация" style="rounded=0;whiteSpace=wrap;html=1;" vertex="1" parent="WIyWlLk6GJQsqaUBKTNV-1">
          <mxGeometry x="705" y="1840" width="155" height="30" as="geometry" />
        </mxCell>
        <mxCell id="LS3qMMqg_-Oj2FB-LzM4-60" style="edgeStyle=orthogonalEdgeStyle;rounded=0;orthogonalLoop=1;jettySize=auto;html=1;exitX=0;exitY=0.5;exitDx=0;exitDy=0;entryX=0;entryY=0.5;entryDx=0;entryDy=0;" edge="1" parent="WIyWlLk6GJQsqaUBKTNV-1" source="LS3qMMqg_-Oj2FB-LzM4-62" target="LS3qMMqg_-Oj2FB-LzM4-66">
          <mxGeometry relative="1" as="geometry" />
        </mxCell>
        <mxCell id="LS3qMMqg_-Oj2FB-LzM4-61" style="edgeStyle=orthogonalEdgeStyle;rounded=0;orthogonalLoop=1;jettySize=auto;html=1;exitX=0.5;exitY=1;exitDx=0;exitDy=0;entryX=0.5;entryY=0;entryDx=0;entryDy=0;" edge="1" parent="WIyWlLk6GJQsqaUBKTNV-1" source="LS3qMMqg_-Oj2FB-LzM4-62" target="LS3qMMqg_-Oj2FB-LzM4-77">
          <mxGeometry relative="1" as="geometry" />
        </mxCell>
        <mxCell id="LS3qMMqg_-Oj2FB-LzM4-62" value="Цикл по строкам в обратном порядке:&lt;br&gt;i = n-1, 0" style="shape=hexagon;perimeter=hexagonPerimeter2;whiteSpace=wrap;html=1;fixedSize=1;" vertex="1" parent="WIyWlLk6GJQsqaUBKTNV-1">
          <mxGeometry x="678.75" y="1900" width="207.5" height="40" as="geometry" />
        </mxCell>
        <mxCell id="LS3qMMqg_-Oj2FB-LzM4-63" style="edgeStyle=orthogonalEdgeStyle;rounded=0;orthogonalLoop=1;jettySize=auto;html=1;exitX=0.5;exitY=1;exitDx=0;exitDy=0;entryX=0;entryY=0.5;entryDx=0;entryDy=0;" edge="1" parent="WIyWlLk6GJQsqaUBKTNV-1" source="LS3qMMqg_-Oj2FB-LzM4-64" target="LS3qMMqg_-Oj2FB-LzM4-75">
          <mxGeometry relative="1" as="geometry">
            <Array as="points">
              <mxPoint x="783" y="2180" />
              <mxPoint x="670" y="2180" />
              <mxPoint x="670" y="2020" />
            </Array>
          </mxGeometry>
        </mxCell>
        <mxCell id="LS3qMMqg_-Oj2FB-LzM4-64" value="sum_ax += A&lt;sub&gt;ij&lt;/sub&gt; * x&lt;sub&gt;j&lt;br&gt;&lt;/sub&gt;j = i+1&lt;sub&gt;&lt;/sub&gt;" style="rounded=0;whiteSpace=wrap;html=1;" vertex="1" parent="WIyWlLk6GJQsqaUBKTNV-1">
          <mxGeometry x="695" y="2080" width="175" height="40" as="geometry" />
        </mxCell>
        <mxCell id="LS3qMMqg_-Oj2FB-LzM4-65" style="edgeStyle=orthogonalEdgeStyle;rounded=0;orthogonalLoop=1;jettySize=auto;html=1;exitX=0.5;exitY=1;exitDx=0;exitDy=0;entryX=0.5;entryY=0;entryDx=0;entryDy=0;" edge="1" parent="WIyWlLk6GJQsqaUBKTNV-1" source="LS3qMMqg_-Oj2FB-LzM4-66" target="LS3qMMqg_-Oj2FB-LzM4-69">
          <mxGeometry relative="1" as="geometry" />
        </mxCell>
        <mxCell id="LS3qMMqg_-Oj2FB-LzM4-66" value="residuals = [0] * n" style="rounded=0;whiteSpace=wrap;html=1;" vertex="1" parent="WIyWlLk6GJQsqaUBKTNV-1">
          <mxGeometry x="640" y="2200" width="280" height="30" as="geometry" />
        </mxCell>
        <mxCell id="LS3qMMqg_-Oj2FB-LzM4-67" value="да" style="edgeStyle=orthogonalEdgeStyle;rounded=0;orthogonalLoop=1;jettySize=auto;html=1;exitX=0.5;exitY=1;exitDx=0;exitDy=0;entryX=0.5;entryY=0;entryDx=0;entryDy=0;" edge="1" parent="WIyWlLk6GJQsqaUBKTNV-1" source="LS3qMMqg_-Oj2FB-LzM4-69" target="LS3qMMqg_-Oj2FB-LzM4-79">
          <mxGeometry relative="1" as="geometry" />
        </mxCell>
        <mxCell id="LS3qMMqg_-Oj2FB-LzM4-68" value="нет" style="edgeStyle=orthogonalEdgeStyle;rounded=0;orthogonalLoop=1;jettySize=auto;html=1;exitX=0;exitY=0.5;exitDx=0;exitDy=0;entryX=0.5;entryY=0;entryDx=0;entryDy=0;" edge="1" parent="WIyWlLk6GJQsqaUBKTNV-1" source="LS3qMMqg_-Oj2FB-LzM4-69" target="LS3qMMqg_-Oj2FB-LzM4-71">
          <mxGeometry relative="1" as="geometry">
            <Array as="points">
              <mxPoint x="570" y="2280" />
              <mxPoint x="570" y="2590" />
            </Array>
          </mxGeometry>
        </mxCell>
        <mxCell id="LS3qMMqg_-Oj2FB-LzM4-69" value="Цикл по строкам исходной матрицы:&lt;br&gt;i = 0, n" style="shape=hexagon;perimeter=hexagonPerimeter2;whiteSpace=wrap;html=1;fixedSize=1;" vertex="1" parent="WIyWlLk6GJQsqaUBKTNV-1">
          <mxGeometry x="676.25" y="2260" width="233.75" height="40" as="geometry" />
        </mxCell>
        <mxCell id="LS3qMMqg_-Oj2FB-LzM4-70" style="edgeStyle=orthogonalEdgeStyle;rounded=0;orthogonalLoop=1;jettySize=auto;html=1;exitX=0.5;exitY=1;exitDx=0;exitDy=0;entryX=0.5;entryY=0;entryDx=0;entryDy=0;" edge="1" parent="WIyWlLk6GJQsqaUBKTNV-1" source="LS3qMMqg_-Oj2FB-LzM4-71" target="LS3qMMqg_-Oj2FB-LzM4-72">
          <mxGeometry relative="1" as="geometry" />
        </mxCell>
        <mxCell id="LS3qMMqg_-Oj2FB-LzM4-71" value="Вывод результата:&lt;br&gt;determinant, A, x, residuals, b" style="shape=parallelogram;perimeter=parallelogramPerimeter;whiteSpace=wrap;html=1;fixedSize=1;" vertex="1" parent="WIyWlLk6GJQsqaUBKTNV-1">
          <mxGeometry x="680" y="2610" width="200" height="60" as="geometry" />
        </mxCell>
        <mxCell id="LS3qMMqg_-Oj2FB-LzM4-72" value="Конец" style="ellipse;whiteSpace=wrap;html=1;" vertex="1" parent="WIyWlLk6GJQsqaUBKTNV-1">
          <mxGeometry x="720" y="2690" width="120" height="80" as="geometry" />
        </mxCell>
        <mxCell id="LS3qMMqg_-Oj2FB-LzM4-73" value="да" style="edgeStyle=orthogonalEdgeStyle;rounded=0;orthogonalLoop=1;jettySize=auto;html=1;exitX=0.5;exitY=1;exitDx=0;exitDy=0;entryX=0.5;entryY=0;entryDx=0;entryDy=0;" edge="1" parent="WIyWlLk6GJQsqaUBKTNV-1" source="LS3qMMqg_-Oj2FB-LzM4-75" target="LS3qMMqg_-Oj2FB-LzM4-64">
          <mxGeometry relative="1" as="geometry" />
        </mxCell>
        <mxCell id="LS3qMMqg_-Oj2FB-LzM4-74" value="нет" style="edgeStyle=orthogonalEdgeStyle;rounded=0;orthogonalLoop=1;jettySize=auto;html=1;exitX=1;exitY=0.5;exitDx=0;exitDy=0;entryX=1;entryY=0.5;entryDx=0;entryDy=0;" edge="1" parent="WIyWlLk6GJQsqaUBKTNV-1" source="LS3qMMqg_-Oj2FB-LzM4-75" target="LS3qMMqg_-Oj2FB-LzM4-62">
          <mxGeometry relative="1" as="geometry" />
        </mxCell>
        <mxCell id="LS3qMMqg_-Oj2FB-LzM4-75" value="j = i+1, n" style="shape=hexagon;perimeter=hexagonPerimeter2;whiteSpace=wrap;html=1;fixedSize=1;" vertex="1" parent="WIyWlLk6GJQsqaUBKTNV-1">
          <mxGeometry x="730" y="2010" width="105" height="20" as="geometry" />
        </mxCell>
        <mxCell id="LS3qMMqg_-Oj2FB-LzM4-76" style="edgeStyle=orthogonalEdgeStyle;rounded=0;orthogonalLoop=1;jettySize=auto;html=1;exitX=0.5;exitY=1;exitDx=0;exitDy=0;entryX=0.5;entryY=0;entryDx=0;entryDy=0;" edge="1" parent="WIyWlLk6GJQsqaUBKTNV-1" source="LS3qMMqg_-Oj2FB-LzM4-77" target="LS3qMMqg_-Oj2FB-LzM4-75">
          <mxGeometry relative="1" as="geometry" />
        </mxCell>
        <mxCell id="LS3qMMqg_-Oj2FB-LzM4-77" value="sum_ax = 0" style="rounded=0;whiteSpace=wrap;html=1;" vertex="1" parent="WIyWlLk6GJQsqaUBKTNV-1">
          <mxGeometry x="750" y="1960" width="65" height="20" as="geometry" />
        </mxCell>
        <mxCell id="LS3qMMqg_-Oj2FB-LzM4-78" style="edgeStyle=orthogonalEdgeStyle;rounded=0;orthogonalLoop=1;jettySize=auto;html=1;exitX=0.5;exitY=1;exitDx=0;exitDy=0;entryX=0.5;entryY=0;entryDx=0;entryDy=0;" edge="1" parent="WIyWlLk6GJQsqaUBKTNV-1" source="LS3qMMqg_-Oj2FB-LzM4-79" target="LS3qMMqg_-Oj2FB-LzM4-82">
          <mxGeometry relative="1" as="geometry" />
        </mxCell>
        <mxCell id="LS3qMMqg_-Oj2FB-LzM4-79" value="sum_val = 0" style="rounded=0;whiteSpace=wrap;html=1;" vertex="1" parent="WIyWlLk6GJQsqaUBKTNV-1">
          <mxGeometry x="730.01" y="2330" width="110" height="30" as="geometry" />
        </mxCell>
        <mxCell id="LS3qMMqg_-Oj2FB-LzM4-80" value="да" style="edgeStyle=orthogonalEdgeStyle;rounded=0;orthogonalLoop=1;jettySize=auto;html=1;exitX=0.5;exitY=1;exitDx=0;exitDy=0;entryX=0.5;entryY=0;entryDx=0;entryDy=0;" edge="1" parent="WIyWlLk6GJQsqaUBKTNV-1" source="LS3qMMqg_-Oj2FB-LzM4-82" target="LS3qMMqg_-Oj2FB-LzM4-84">
          <mxGeometry relative="1" as="geometry" />
        </mxCell>
        <mxCell id="LS3qMMqg_-Oj2FB-LzM4-81" value="нет" style="edgeStyle=orthogonalEdgeStyle;rounded=0;orthogonalLoop=1;jettySize=auto;html=1;exitX=0;exitY=0.5;exitDx=0;exitDy=0;entryX=0.5;entryY=0;entryDx=0;entryDy=0;" edge="1" parent="WIyWlLk6GJQsqaUBKTNV-1" source="LS3qMMqg_-Oj2FB-LzM4-82" target="LS3qMMqg_-Oj2FB-LzM4-86">
          <mxGeometry relative="1" as="geometry">
            <Array as="points">
              <mxPoint x="610" y="2405" />
              <mxPoint x="610" y="2480" />
            </Array>
          </mxGeometry>
        </mxCell>
        <mxCell id="LS3qMMqg_-Oj2FB-LzM4-82" value="j = 0, n" style="shape=hexagon;perimeter=hexagonPerimeter2;whiteSpace=wrap;html=1;fixedSize=1;" vertex="1" parent="WIyWlLk6GJQsqaUBKTNV-1">
          <mxGeometry x="724.0699999999999" y="2390" width="121.87" height="30" as="geometry" />
        </mxCell>
        <mxCell id="LS3qMMqg_-Oj2FB-LzM4-83" style="edgeStyle=orthogonalEdgeStyle;rounded=0;orthogonalLoop=1;jettySize=auto;html=1;exitX=1;exitY=0.5;exitDx=0;exitDy=0;entryX=1;entryY=0.5;entryDx=0;entryDy=0;" edge="1" parent="WIyWlLk6GJQsqaUBKTNV-1" source="LS3qMMqg_-Oj2FB-LzM4-84" target="LS3qMMqg_-Oj2FB-LzM4-82">
          <mxGeometry relative="1" as="geometry" />
        </mxCell>
        <mxCell id="LS3qMMqg_-Oj2FB-LzM4-84" value="sum_val += A_orig&lt;sub&gt;ij &lt;/sub&gt;* x&lt;sub&gt;j&lt;/sub&gt;" style="rounded=0;whiteSpace=wrap;html=1;" vertex="1" parent="WIyWlLk6GJQsqaUBKTNV-1">
          <mxGeometry x="705" y="2450" width="162.5" height="20" as="geometry" />
        </mxCell>
        <mxCell id="LS3qMMqg_-Oj2FB-LzM4-85" style="edgeStyle=orthogonalEdgeStyle;rounded=0;orthogonalLoop=1;jettySize=auto;html=1;exitX=1;exitY=0.5;exitDx=0;exitDy=0;entryX=1;entryY=0.5;entryDx=0;entryDy=0;" edge="1" parent="WIyWlLk6GJQsqaUBKTNV-1" source="LS3qMMqg_-Oj2FB-LzM4-86" target="LS3qMMqg_-Oj2FB-LzM4-69">
          <mxGeometry relative="1" as="geometry" />
        </mxCell>
        <mxCell id="LS3qMMqg_-Oj2FB-LzM4-86" value="residuals.append(b_orig - sum_val)" style="rounded=0;whiteSpace=wrap;html=1;" vertex="1" parent="WIyWlLk6GJQsqaUBKTNV-1">
          <mxGeometry x="685" y="2490" width="202.5" height="40" as="geometry" />
        </mxCell>
        <mxCell id="LS3qMMqg_-Oj2FB-LzM4-88" style="edgeStyle=orthogonalEdgeStyle;rounded=0;orthogonalLoop=1;jettySize=auto;html=1;exitX=0.5;exitY=1;exitDx=0;exitDy=0;entryX=0.5;entryY=0;entryDx=0;entryDy=0;" edge="1" parent="WIyWlLk6GJQsqaUBKTNV-1" source="LS3qMMqg_-Oj2FB-LzM4-87" target="LS3qMMqg_-Oj2FB-LzM4-2">
          <mxGeometry relative="1" as="geometry" />
        </mxCell>
        <mxCell id="LS3qMMqg_-Oj2FB-LzM4-87" value="Начало" style="ellipse;whiteSpace=wrap;html=1;" vertex="1" parent="WIyWlLk6GJQsqaUBKTNV-1">
          <mxGeometry x="720" y="-60" width="120" height="80" as="geometry" />
        </mxCell>
        <mxCell id="LS3qMMqg_-Oj2FB-LzM4-89" value="&lt;font style=&quot;font-size: 36px;&quot;&gt;ПРИМЕР&lt;/font&gt;" style="shape=tape;whiteSpace=wrap;html=1;" vertex="1" parent="WIyWlLk6GJQsqaUBKTNV-1">
          <mxGeometry x="470" y="-200" width="580" height="100" as="geometry" />
        </mxCell>
        <mxCell id="LS3qMMqg_-Oj2FB-LzM4-94" style="edgeStyle=orthogonalEdgeStyle;rounded=0;orthogonalLoop=1;jettySize=auto;html=1;exitX=0.5;exitY=1;exitDx=0;exitDy=0;entryX=0.5;entryY=0;entryDx=0;entryDy=0;" edge="1" parent="WIyWlLk6GJQsqaUBKTNV-1" source="LS3qMMqg_-Oj2FB-LzM4-90" target="LS3qMMqg_-Oj2FB-LzM4-93">
          <mxGeometry relative="1" as="geometry" />
        </mxCell>
        <mxCell id="LS3qMMqg_-Oj2FB-LzM4-90" value="Начало" style="ellipse;whiteSpace=wrap;html=1;" vertex="1" parent="WIyWlLk6GJQsqaUBKTNV-1">
          <mxGeometry x="2125" y="-70" width="120" height="80" as="geometry" />
        </mxCell>
        <mxCell id="LS3qMMqg_-Oj2FB-LzM4-92" value="&lt;font style=&quot;font-size: 24px;&quot;&gt;Метод половинного деления&lt;/font&gt;" style="shape=process;whiteSpace=wrap;html=1;backgroundOutline=1;" vertex="1" parent="WIyWlLk6GJQsqaUBKTNV-1">
          <mxGeometry x="1930" y="-180" width="510" height="60" as="geometry" />
        </mxCell>
        <mxCell id="LS3qMMqg_-Oj2FB-LzM4-93" value="Ввод матрицы A и вектора b" style="shape=parallelogram;perimeter=parallelogramPerimeter;whiteSpace=wrap;html=1;fixedSize=1;" vertex="1" parent="WIyWlLk6GJQsqaUBKTNV-1">
          <mxGeometry x="2115" y="60" width="140" height="60" as="geometry" />
        </mxCell>
      </root>
    </mxGraphModel>
  </diagram>
</mxfile>
